<svg width="108" height="108" fill="none" xmlns="http://www.w3.org/2000/svg">
  <mask id="a" maskUnits="userSpaceOnUse" x="4" y="11" width="100" height="86">
    <path fill-rule="evenodd" clip-rule="evenodd" d="M96.75 11.25h-85.5c-3.73 0-6.75 3.02-6.75 6.75v72c0 3.729 3.02 6.75 6.75 6.75h85.5c3.729 0 6.75-3.021 6.75-6.75V18c0-3.73-3.021-6.75-6.75-6.75z" fill="#fff"/>
  </mask>
  <g mask="url(#a)">
    <path fill-rule="evenodd" clip-rule="evenodd" d="M13.5 20.25h81v67.5h-81v-67.5z" fill="#0F9D58"/>
    <path fill-rule="evenodd" clip-rule="evenodd" d="M36 56.25a5.063 5.063 0 100-10.126 5.063 5.063 0 000 10.126zm41.063-5.063a5.063 5.063 0 11-10.126 0 5.063 5.063 0 0110.126 0zM60.75 66.055c0-3.555 5.828-6.429 11.25-6.429s11.25 2.874 11.25 6.43v3.695h-22.5v-3.696zm-36 0c0-3.555 5.828-6.429 11.25-6.429 5.423 0 11.25 2.874 11.25 6.43v3.695h-22.5v-3.696z" fill="#57BB8A"/>
    <path fill-rule="evenodd" clip-rule="evenodd" d="M60.75 45.001c0 3.73-3.02 6.75-6.744 6.75a6.753 6.753 0 01-6.756-6.75 6.756 6.756 0 016.756-6.75c3.723 0 6.744 3.026 6.744 6.75zm-22.5 20.25c0-4.973 8.156-9 15.75-9 7.594 0 15.75 4.027 15.75 9v4.5h-31.5v-4.5z" fill="#F7F7F7"/>
    <path fill-rule="evenodd" clip-rule="evenodd" d="M63 83.251h20.25v4.5H63v-4.5z" fill="#F1F1F1"/>
    <path fill-rule="evenodd" clip-rule="evenodd" d="M11.25 11.25h85.5c3.729 0 6.75 3.02 6.75 6.75v72c0 3.729-3.021 6.75-6.75 6.75h-85.5c-3.73 0-6.75-3.021-6.75-6.75V18c0-3.73 3.02-6.75 6.75-6.75zm2.25 76.5h81v-67.5h-81v67.5z" fill="#F4B400"/>
  </g>
</svg>
